<?xml version="1.0" encoding="utf-8"?>
<svg version="1.1" id="Ebene_1" xmlns="http://www.w3.org/2000/svg" xmlns:xlink="http://www.w3.org/1999/xlink" x="0px" y="0px"
	 viewBox="0 0 16 16" style="enable-background:new 0 0 16 16;" xml:space="preserve">
<style type="text/css">
	.st0{fill:#2A9B2E;}
</style>
<title>score_negative</title>
<path class="st0" d="M8,0C3.6,0,0,3.6,0,8s3.6,8,8,8c4.4,0,8-3.6,8-8c0,0,0,0,0,0C16,3.6,12.4,0,8,0z M5.8,11.4L3,8.6
	C2.7,8.2,2.7,7.7,3,7.4c0.3-0.3,0.8-0.3,1.1,0l2.3,2.3l5.5-5.5c0.3-0.3,0.8-0.3,1.1,0c0.3,0.3,0.3,0.8,0,1.1L7,11.4
	C6.7,11.7,6.2,11.7,5.8,11.4C5.8,11.4,5.8,11.4,5.8,11.4z"/>
</svg>
